<?xml version="1.0" encoding="UTF-8"?>
<svg enable-background="new 0 0 247.3 54.4" version="1.1" viewBox="0 0 247.3 54.4" xml:space="preserve" xmlns="http://www.w3.org/2000/svg"><style type="text/css">.st0{fill:none;}.st1{fill:#808080;}.st2{fill:#E18029;}</style><path class="st0" d="m73.8 15.8l-1.9 8.7h0.1l1.8-8.7z"/><path class="st0" d="m47.7 13.7c-4.4 0-7.4 4.7-7.4 11.3 0 4.3 2 6.9 5.5 6.9 2.3 0 4.1-1.1 5.4-3.5 1.2-2 1.9-5.2 1.9-7.9 0-4.3-2-6.8-5.4-6.8z"/><path class="st0" d="m219.3 13.4c-3.1 0-5.5 2-6.7 5.8h11c0.1-0.7 0.1-1.1 0.1-1.5 0-2.7-1.6-4.3-4.4-4.3z"/><path class="st1" d="m38.3 35.1c5.9-0.9 12.9-2.3 18.3-4.6 1.7-2.8 2.7-6.3 2.7-10.2 0-7.4-4.3-12-11.5-12-8.3 0-14.1 6.9-14.1 16.6 0 4.7 1.7 8.2 4.6 10.2zm9.4-21.4c3.4 0 5.4 2.6 5.4 6.8 0 2.7-0.7 5.9-1.9 7.9-1.3 2.3-3.1 3.5-5.4 3.5-3.4 0-5.5-2.6-5.5-6.9 0-6.7 3-11.3 7.4-11.3zm47.5-5.2c-3.1 0-5.7 0.6-9.1 1.9-1.9-1.4-4-1.9-7.2-1.9s-6.4 0.5-10.5 1.6l-3.7 17.5c2.5-0.9 4.8-1.9 7.2-3.1l1.9-8.7 0.3-1.5c1.8-0.4 2.9-0.5 4.2-0.5 2.7 0 4.3 1.1 4.3 3.1 0 0.6-0.1 1.3-0.3 2l-3.7 17.4h6.5l3.7-17.4c0.2-1 0.3-2 0.3-3 0-0.4-0.1-0.7-0.2-1.2 1.9-0.7 3.1-1 4.7-1 2.6 0 4 1.1 4 3 0 0.6-0.1 1.3-0.3 2l-3.7 17.5h6.5l3.6-17.2c0.3-1.3 0.5-2.6 0.5-3.8 0.1-4-3.5-6.7-9-6.7zm29.7 22.4c-1.4 0.3-2.4 0.4-3.7 0.4-3 0-4.6-1.2-4.6-3.4 0-0.7 0.1-1.4 0.3-2l3.6-17h-6.5l-3.5 16.3c-0.3 1.4-0.5 2.8-0.5 4.1 0 4.7 3.7 7.3 10.4 7.3 2.8 0 5.4-0.3 9.1-1.1l1-0.2 5.6-26.3h-6.5l-4.7 21.9zm30.9-22.4c-3.6 0-6.8 0.5-11 1.6l-5.6 26.2h6.5l4.7-22c1.8-0.4 3.1-0.5 4.5-0.5 2.8 0 4.3 1.1 4.3 3 0 0.7-0.1 1.5-0.3 2.3l-3.7 17.2h6.6l3.6-16.8c0.3-1.4 0.5-2.8 0.5-4-0.1-4.5-3.8-7-10.1-7zm19.8 0.9l-5.8 26.9h6.5l5.8-27c-1 0.5-2.2 0.7-3.4 0.7-1 0.1-2.1-0.2-3.1-0.6zm24.3-7.4h-6l-1.7 7.5h-5.5l-1 4.7h5.2l-3 13.1c-0.5 1.8-0.7 3.5-0.7 4.6 0 3 2.5 4.7 6.9 4.7 1.4 0 2.8-0.1 4.3-0.5l1-4.7c-0.9 0.2-1.3 0.2-2 0.2-2.2 0-3.2-0.7-3.2-2.2 0-0.6 0.1-1.8 0.3-2.9l2.8-12.3h6.3l1-4.7h-6.4l1.7-7.5zm20.1 6.4c-8.5 0-14.7 7.1-14.7 16.7 0 7.4 4.5 11.7 12.2 11.7 3 0 5.2-0.5 8.3-1.8l1.2-5.7c-2.6 1.3-5.4 1.9-8.1 1.9-4.8 0-7.4-2.2-7.4-6.3 0.1-0.2 0.1-0.6 0.1-1h17.6c0.6-2.6 0.8-4.3 0.8-6.1-0.1-5.8-3.9-9.4-10-9.4zm3.6 10.8h-11c1.2-3.8 3.6-5.8 6.7-5.8 2.7 0 4.4 1.7 4.4 4.3 0 0.4 0 0.8-0.1 1.5zm17.2-18.8l-0.2 1.1-7.4 34.8h6.5l7.4-34.7 0.2-1.2h-6.5zm-214.8 35.6c1.2 0.1 2.4 0.2 3.5 0.1-2-0.4-3.8-1.3-5.4-2.4-8.8-6.3-10.6-21.9 5.3-23.9 1.4-0.2 2.6 0 3.8 0.3l1.8-7.6c-1.9-0.5-3.7-0.7-5.9-0.7-4.8 0-9.1 1.2-12.6 3.4-3.7 2.7-6.4 6.8-6.5 9.8-1.1 13.6 7.2 20.1 16 21zm44.7-6.8s-2.6 1.3-7 2.9c-0.6 0.2-1.3 0.5-2 0.7-1 0.3-2 0.7-3.1 1.1-7.7 2.5-18.4 5.2-30.4 5.9-27 1.4-25.6-20-26-20s-1.5 4.5-1.6 5.3 0.2 3.2 0.6 4.4c0.3 1.1 0.7 2.5 1.2 3.4 12.4 25.4 66.8 4.2 66.8 4.2l0.2-0.1 0.9-4.5 0.7-3.5h-0.1l-0.2 0.2z"/><path class="st2" d="m180.1 0c-1.7 0-3.3 1.4-3.5 3.1-0.1 1.2 0.5 2.3 1.4 2.8 0.4 0.2 0.9 0.3 1.4 0.4 1.7 0 3.3-1.4 3.5-3.1 0.2-1.8-1.1-3.2-2.8-3.2zm-154.2 47.7c-21.3-1.9-24.5-13.5-25.4-17.1-0.1-0.6-0.2-1-0.3-1.1-0.1 0-0.2 0.1-0.2 0.4-0.2 1.2 0.3 5.2 1.2 7.6 10.8 29.7 65.7 11.2 65.7 11.2l1.7-8.2-0.2 0.1s-23.7 8.7-42.5 7.1z"/><path class="st1" d="M72.5,43.5h0.8V48h-0.8V43.5z"/><path class="st1" d="M74.5,43.5h0.7l2.4,3.1v-3.1h0.8V48h-0.7l-2.5-3.2V48h-0.8V43.5z"/><path class="st1" d="M79.6,43.5h0.7l2.4,3.1v-3.1h0.8V48h-0.7l-2.5-3.2V48h-0.8V43.5z"/><path class="st1" d="m84.4 45.8c0-1.3 1-2.3 2.4-2.3s2.3 1 2.3 2.3-1 2.3-2.4 2.3c-1.3 0-2.3-1.1-2.3-2.3zm3.9 0c0-0.9-0.6-1.6-1.5-1.6s-1.5 0.7-1.5 1.6 0.6 1.6 1.5 1.6c0.9-0.1 1.5-0.8 1.5-1.6z"/><path class="st1" d="M89.4,43.5h0.9l1.4,3.5l1.3-3.5h0.9L92,48h-0.7L89.4,43.5z"/><path class="st1" d="m95.6 43.5h0.7l2 4.5h-0.8l-0.5-1.1h-2.1l-0.5 1.1h-0.8l2-4.5zm1.1 2.7l-0.8-1.8-0.8 1.8h1.6z"/><path class="st1" d="m98.6 45.8c0-1.3 1-2.3 2.3-2.3 0.8 0 1.3 0.3 1.8 0.7l-0.5 0.6c-0.4-0.3-0.7-0.6-1.3-0.6-0.9 0-1.5 0.7-1.5 1.6s0.6 1.6 1.5 1.6c0.6 0 0.9-0.2 1.3-0.6l0.5 0.5c-0.5 0.5-1 0.8-1.8 0.8-1.4 0-2.3-1-2.3-2.3z"/><path class="st1" d="M103.5,43.5h0.8V48h-0.8V43.5z"/><path class="st1" d="m105.3 45.8c0-1.3 1-2.3 2.4-2.3s2.3 1 2.3 2.3-1 2.3-2.4 2.3c-1.3 0-2.3-1.1-2.3-2.3zm3.9 0c0-0.9-0.6-1.6-1.5-1.6s-1.5 0.7-1.5 1.6 0.6 1.6 1.5 1.6c0.9-0.1 1.5-0.8 1.5-1.6zm-1.1-3.7l0.7 0.3-0.8 0.6h-0.6l0.7-0.9z"/><path class="st1" d="M111,43.5h0.7l2.4,3.1v-3.1h0.8V48h-0.7l-2.5-3.2V48H111V43.5z"/><path class="st1" d="M118,43.5h3.3v0.7h-2.5v1.2h2.3v0.7h-2.3v1.2h2.6V48H118V43.5z"/><path class="st1" d="M122.3,43.5h0.7l2.4,3.1v-3.1h0.8V48h-0.7l-2.5-3.2V48h-0.8V43.5z"/><path class="st1" d="M129.3,43.5h0.8V48h-0.8V43.5z"/><path class="st1" d="M131.3,43.5h0.7l2.4,3.1v-3.1h0.8V48h-0.7l-2.5-3.2V48h-0.8V43.5z"/><path class="st1" d="M137.5,44.2H136v-0.7h3.6v0.7h-1.4V48h-0.8V44.2z"/><path class="st1" d="M140.5,43.5h3.3v0.7h-2.5v1.2h2.3v0.7h-2.3v1.2h2.6V48h-3.4V43.5z"/><path class="st1" d="m144.6 45.8c0-1.3 1-2.3 2.3-2.3 0.8 0 1.3 0.2 1.7 0.6l-0.5 0.6c-0.3-0.3-0.7-0.5-1.3-0.5-0.8 0-1.5 0.7-1.5 1.6s0.6 1.6 1.5 1.6c0.4 0 0.8-0.1 1.1-0.3v-0.8h-1.1v-0.7h1.9v1.9c-0.4 0.4-1.1 0.7-1.9 0.7-1.3-0.1-2.2-1.1-2.2-2.4z"/><path class="st1" d="m149.8 43.5h2c0.6 0 1 0.2 1.3 0.4 0.2 0.2 0.4 0.6 0.4 1 0 0.7-0.4 1.2-1.1 1.4l1.2 1.7h-0.9l-1.1-1.6h-1v1.6h-0.8v-4.5zm2 2.2c0.6 0 0.9-0.3 0.9-0.8s-0.3-0.7-0.9-0.7h-1.1v1.5h1.1z"/><path class="st1" d="m156.1 43.5h0.7l2 4.5h-0.8l-0.5-1.1h-2.1l-0.5 1.1h-0.8l2-4.5zm1.1 2.7l-0.8-1.8-0.8 1.8h1.6z"/><path class="st1" d="m159.1 45.8c0-1.3 1-2.3 2.3-2.3 0.8 0 1.3 0.3 1.8 0.7l-0.5 0.6c-0.4-0.3-0.7-0.6-1.3-0.6-0.9 0-1.5 0.7-1.5 1.6s0.6 1.6 1.5 1.6c0.6 0 0.9-0.2 1.3-0.6l0.5 0.5c-0.5 0.5-1 0.8-1.8 0.8-1.4 0-2.3-1-2.3-2.3z"/><path class="st1" d="M164,43.5h0.8V48H164V43.5z"/><path class="st1" d="m165.8 45.8c0-1.3 1-2.3 2.4-2.3s2.3 1 2.3 2.3-1 2.3-2.4 2.3c-1.3 0-2.3-1.1-2.3-2.3zm3.9 0c0-0.9-0.6-1.6-1.5-1.6s-1.5 0.7-1.5 1.6 0.6 1.6 1.5 1.6c0.9-0.1 1.5-0.8 1.5-1.6z"/><path class="st1" d="M171.5,43.5h0.7l2.4,3.1v-3.1h0.8V48h-0.7l-2.5-3.2V48h-0.8V43.5z"/><path class="st1" d="M176.5,43.5h3.3v0.7h-2.5v1.2h2.3v0.7h-2.3v1.2h2.6V48h-3.4V43.5z"/><path class="st1" d="m180.5 47.3l0.5-0.6c0.4 0.4 0.9 0.6 1.4 0.6s0.8-0.2 0.8-0.6c0-0.3-0.2-0.5-1-0.7-1-0.2-1.5-0.5-1.5-1.3s0.6-1.3 1.5-1.3c0.7 0 1.2 0.2 1.6 0.6l-0.4 0.6c-0.4-0.3-0.8-0.5-1.2-0.5-0.5 0-0.7 0.2-0.7 0.5s0.2 0.5 1.1 0.7 1.4 0.6 1.4 1.3c0 0.8-0.7 1.3-1.6 1.3-0.7 0.2-1.3-0.1-1.9-0.6z"/><path class="st1" d="M188,44.2h-1.4v-0.7h3.6v0.7h-1.4V48H188V44.2z"/><path class="st1" d="M191,43.5h3.3v0.7h-2.5v1.2h2.3v0.7h-2.3v1.2h2.6V48H191V43.5z"/><path class="st1" d="m195.1 45.8c0-1.3 1-2.3 2.3-2.3 0.8 0 1.3 0.3 1.8 0.7l-0.5 0.6c-0.4-0.3-0.7-0.6-1.3-0.6-0.9 0-1.5 0.7-1.5 1.6s0.6 1.6 1.5 1.6c0.6 0 0.9-0.2 1.3-0.6l0.5 0.5c-0.5 0.5-1 0.8-1.8 0.8-1.3 0-2.3-1-2.3-2.3z"/><path class="st1" d="M200.1,43.5h0.7l2.4,3.1v-3.1h0.8V48h-0.7l-2.5-3.2V48h-0.8V43.5z"/><path class="st1" d="m204.9 45.8c0-1.3 1-2.3 2.4-2.3s2.3 1 2.3 2.3-1 2.3-2.4 2.3c-1.3 0-2.3-1.1-2.3-2.3zm3.9 0c0-0.9-0.6-1.6-1.5-1.6s-1.5 0.7-1.5 1.6 0.6 1.6 1.5 1.6c0.9-0.1 1.5-0.8 1.5-1.6z"/><path class="st1" d="M210.6,43.5h0.8v3.8h2.4V48h-3.1V43.5z"/><path class="st1" d="m214.1 45.8c0-1.3 1-2.3 2.4-2.3s2.3 1 2.3 2.3-1 2.3-2.4 2.3-2.3-1.1-2.3-2.3zm3.9 0c0-0.9-0.6-1.6-1.5-1.6s-1.5 0.7-1.5 1.6 0.6 1.6 1.5 1.6 1.5-0.8 1.5-1.6zm-1.2-3.7l0.7 0.3-0.8 0.6h-0.6l0.7-0.9z"/><path class="st1" d="m219.5 45.8c0-1.3 1-2.3 2.3-2.3 0.8 0 1.3 0.2 1.7 0.6l-0.5 0.6c-0.3-0.3-0.7-0.5-1.3-0.5-0.8 0-1.5 0.7-1.5 1.6s0.6 1.6 1.5 1.6c0.4 0 0.8-0.1 1.1-0.3v-0.8h-1.1v-0.7h1.9v1.9c-0.4 0.4-1.1 0.7-1.9 0.7-1.2-0.1-2.2-1.1-2.2-2.4z"/><path class="st1" d="M224.8,43.5h0.8V48h-0.8V43.5z"/><path class="st1" d="m226.6 45.8c0-1.3 1-2.3 2.3-2.3 0.8 0 1.3 0.3 1.8 0.7l-0.5 0.6c-0.4-0.3-0.7-0.6-1.3-0.6-0.9 0-1.5 0.7-1.5 1.6s0.6 1.6 1.5 1.6c0.6 0 0.9-0.2 1.3-0.6l0.5 0.5c-0.5 0.5-1 0.8-1.8 0.8-1.3 0-2.3-1-2.3-2.3z"/><path class="st1" d="m233.1 43.5h0.7l2 4.5h-0.8l-0.5-1.1h-2.1l-0.4 1.1h-0.8l1.9-4.5zm1.1 2.7l-0.8-1.8-0.8 1.8h1.6z"/><path class="st1" d="m236.2 47.3l0.5-0.6c0.4 0.4 0.9 0.6 1.4 0.6s0.8-0.2 0.8-0.6c0-0.3-0.2-0.5-1-0.7-1-0.2-1.5-0.5-1.5-1.3s0.6-1.3 1.5-1.3c0.7 0 1.2 0.2 1.6 0.6l-0.4 0.6c-0.4-0.3-0.8-0.5-1.2-0.5-0.5 0-0.7 0.2-0.7 0.5s0.2 0.5 1.1 0.7 1.4 0.6 1.4 1.3c0 0.8-0.7 1.3-1.6 1.3-0.7 0.2-1.3-0.1-1.9-0.6z"/></svg>